<?xml version="1.0" encoding="UTF-8" standalone="no"?>
<!-- Created with Inkscape (http://www.inkscape.org/) -->

<svg
   version="1.1"
   id="svg1"
   width="144"
   height="141.71349"
   viewBox="0 0 144 141.71349"
   xmlns="http://www.w3.org/2000/svg"
   xmlns:svg="http://www.w3.org/2000/svg">
  <defs
     id="defs1">
    <clipPath
       clipPathUnits="userSpaceOnUse"
       id="clipPath205">
      <path
         d="M 0,450 H 600 V 0 H 0 Z"
         transform="translate(-303.39938,-247.07031)"
         id="path205" />
    </clipPath>
    <clipPath
       clipPathUnits="userSpaceOnUse"
       id="clipPath207">
      <path
         d="M 0,450 H 600 V 0 H 0 Z"
         transform="translate(-343.48343,-316.36721)"
         id="path207" />
    </clipPath>
  </defs>
  <g
     id="layer-MC0"
     transform="translate(-2784.6445,-178.17692)">
    <path
       id="path204"
       d="M 0,0 C 0.693,0.695 1.123,1.377 1.406,2.063 1.684,2.746 1.814,3.441 1.814,4.162 1.818,5.309 1.461,6.518 0.811,7.539 0.162,8.566 -0.75,9.373 -1.783,9.838 c -0.694,0.312 -1.446,0.49 -2.328,0.492 -0.405,0 -0.838,-0.039 -1.311,-0.131 H -5.424 C -6.568,9.977 -7.709,9.867 -8.83,9.867 c -2.449,-0.002 -4.791,0.529 -6.865,1.471 -2.076,0.941 -3.887,2.277 -5.369,3.867 -2.957,3.184 -4.683,7.375 -4.694,11.832 -0.001,2.082 0.392,4.221 1.23,6.266 0.835,2.047 2.118,3.988 3.807,5.674 l 20.076,20.078 c 3.782,3.779 1.104,10.242 -4.242,10.242 -1.592,0 -3.117,-0.631 -4.242,-1.758 L -29.207,47.463 c -5.637,-5.643 -8.541,-12.994 -8.547,-20.483 0.002,-4.638 1.119,-9.318 3.44,-13.685 2.469,-4.643 5.993,-8.356 10.159,-10.986 l 5.821,-3.674 -15.838,-15.838 c -2.148,-2.149 -5.631,-2.149 -7.779,0 -2.148,2.148 -2.148,5.631 0,7.777 l 6.537,6.537 c -3.418,3.08 -6.357,6.778 -8.613,11.022 -3.17,5.959 -4.727,12.435 -4.727,18.847 -0.004,10.348 4.059,20.555 11.769,28.26 l 6.918,6.918 c 2.634,2.635 0.768,7.139 -2.957,7.139 h -18.892 c -4.399,0 -8,-3.6 -8,-8 v -90.285 c 0,-4.401 3.601,-8 8,-8 h 14.93 z"
       style="fill:#000000;fill-opacity:1;fill-rule:nonzero;stroke:none"
       transform="matrix(1.3333333,0,0,-1.3333333,2864.5325,270.57293)"
       clip-path="url(#clipPath205)" />
    <path
       id="path206"
       d="m 0,0 h -14.928 l -38.099,-38.098 c -0.694,-0.697 -1.123,-1.379 -1.405,-2.062 -0.279,-0.684 -0.41,-1.381 -0.41,-2.1 -0.004,-1.146 0.354,-2.355 1.004,-3.379 0.65,-1.025 1.563,-1.834 2.596,-2.299 0.693,-0.312 1.445,-0.49 2.328,-0.492 0.404,0 0.84,0.039 1.31,0.131 h -10e-4 c 1.146,0.223 2.289,0.332 3.41,0.332 2.449,0.002 4.791,-0.529 6.865,-1.471 2.076,-0.941 3.887,-2.277 5.369,-3.867 2.957,-3.183 4.682,-7.373 4.691,-11.83 0.002,-2.084 -0.39,-4.22 -1.228,-6.267 -0.836,-2.045 -2.119,-3.989 -3.807,-5.674 l -18.966,-18.967 c -3.78,-3.779 -1.104,-10.242 4.242,-10.242 1.591,0 3.117,0.633 4.244,1.758 l 18.965,18.966 c 5.636,5.641 8.543,12.993 8.547,20.481 0,4.639 -1.12,9.32 -3.44,13.685 -2.471,4.645 -5.992,8.356 -10.158,10.987 l -5.766,3.638 15.645,15.946 c 2.129,2.168 5.609,2.203 7.779,0.074 2.168,-2.127 2.201,-5.609 0.074,-7.777 l -6.517,-6.643 c 3.435,-3.088 6.39,-6.799 8.656,-11.06 3.17,-5.961 4.729,-12.438 4.727,-18.85 0.005,-10.348 -4.057,-20.553 -11.768,-28.26 l -5.807,-5.806 c -2.634,-2.635 -0.769,-7.139 2.957,-7.139 H 0 c 4.4,0 8,3.599 8,8 V -8 C 8,-3.6 4.4,0 0,0"
       style="fill:#000000;fill-opacity:1;fill-rule:nonzero;stroke:none"
       transform="matrix(1.3333333,0,0,-1.3333333,2917.9779,178.17707)"
       clip-path="url(#clipPath207)" />
  </g>
</svg>
