<?xml version="1.0" encoding="UTF-8" standalone="no"?>
<!-- Created with Inkscape (http://www.inkscape.org/) -->

<svg
   version="1.1"
   id="svg1"
   width="328.77759"
   height="66.183075"
   viewBox="0 0 328.77759 66.183075"
   sodipodi:docname="logo.svg"
   xmlns:inkscape="http://www.inkscape.org/namespaces/inkscape"
   xmlns:sodipodi="http://sodipodi.sourceforge.net/DTD/sodipodi-0.dtd"
   xmlns:xlink="http://www.w3.org/1999/xlink"
   xmlns="http://www.w3.org/2000/svg"
   xmlns:svg="http://www.w3.org/2000/svg">
  <sodipodi:namedview
     id="namedview1"
     pagecolor="#505050"
     bordercolor="#eeeeee"
     borderopacity="0"
     inkscape:showpageshadow="0"
     inkscape:pageopacity="0"
     inkscape:pagecheckerboard="0"
     inkscape:deskcolor="#505050"
     inkscape:export-bgcolor="#ffffffff">
    <inkscape:page
       x="0"
       y="0"
       width="328.77759"
       height="66.183075"
       id="page4"
       margin="0"
       bleed="0" />
  </sodipodi:namedview>
  <defs
     id="defs1">
    <color-profile
       name="Display"
       xlink:href="file:///Library/ColorSync/Profiles/Displays/LC32G7xT-14E8B3ED-8C42-4192-B3C7-12618CDC5849.icc"
       id="color-profile1" />
    <color-profile
       name="SMPTE-RP-431-2-2007-DCI-P3"
       xlink:href="file:///System/Library/ColorSync/Profiles/DCI(P3)%20RGB.icc"
       id="color-profile2" />
    <clipPath
       clipPathUnits="userSpaceOnUse"
       id="clipPath174">
      <path
         d="M 0,450 H 600 V 0 H 0 Z"
         transform="translate(-289.56451,-146.6689)"
         id="path174" />
    </clipPath>
    <clipPath
       clipPathUnits="userSpaceOnUse"
       id="clipPath176">
      <path
         d="M 0,450 H 600 V 0 H 0 Z"
         transform="translate(-309.03173,-156.3496)"
         id="path176" />
    </clipPath>
    <clipPath
       clipPathUnits="userSpaceOnUse"
       id="clipPath178">
      <path
         d="M 0,450 H 600 V 0 H 0 Z"
         transform="translate(-319.38038,-154.7031)"
         id="path178" />
    </clipPath>
    <clipPath
       clipPathUnits="userSpaceOnUse"
       id="clipPath180">
      <path
         d="M 0,450 H 600 V 0 H 0 Z"
         transform="translate(-334.85213,-146.41311)"
         id="path180" />
    </clipPath>
    <clipPath
       clipPathUnits="userSpaceOnUse"
       id="clipPath182">
      <path
         d="M 0,450 H 600 V 0 H 0 Z"
         id="path182" />
    </clipPath>
    <clipPath
       clipPathUnits="userSpaceOnUse"
       id="clipPath184">
      <path
         d="M 0,450 H 600 V 0 H 0 Z"
         transform="translate(-362.16938,-146.6689)"
         id="path184" />
    </clipPath>
    <clipPath
       clipPathUnits="userSpaceOnUse"
       id="clipPath186">
      <path
         d="M 0,450 H 600 V 0 H 0 Z"
         transform="translate(-374.72513,-153.4678)"
         id="path186" />
    </clipPath>
    <clipPath
       clipPathUnits="userSpaceOnUse"
       id="clipPath188">
      <path
         d="M 0,450 H 600 V 0 H 0 Z"
         transform="translate(-395.02291,-146.5195)"
         id="path188" />
    </clipPath>
    <clipPath
       clipPathUnits="userSpaceOnUse"
       id="clipPath191">
      <path
         d="M 0,450 H 600 V 0 H 0 Z"
         transform="translate(-200.32808,-168.0117)"
         id="path191" />
    </clipPath>
    <clipPath
       clipPathUnits="userSpaceOnUse"
       id="clipPath193">
      <path
         d="M 0,450 H 600 V 0 H 0 Z"
         transform="translate(-235.38571,-168.0117)"
         id="path193" />
    </clipPath>
    <clipPath
       clipPathUnits="userSpaceOnUse"
       id="clipPath195">
      <path
         d="M 0,450 H 600 V 0 H 0 Z"
         transform="translate(-263.44823,-168.0117)"
         id="path195" />
    </clipPath>
    <clipPath
       clipPathUnits="userSpaceOnUse"
       id="clipPath197">
      <path
         d="M 0,450 H 600 V 0 H 0 Z"
         transform="translate(-295.60741,-168.0117)"
         id="path197" />
    </clipPath>
    <clipPath
       clipPathUnits="userSpaceOnUse"
       id="clipPath199">
      <path
         d="M 0,450 H 600 V 0 H 0 Z"
         transform="translate(-342.72563,-168.0117)"
         id="path199" />
    </clipPath>
    <clipPath
       clipPathUnits="userSpaceOnUse"
       id="clipPath201">
      <path
         d="M 0,450 H 600 V 0 H 0 Z"
         transform="translate(-379.71781,-168.0117)"
         id="path201" />
    </clipPath>
    <clipPath
       clipPathUnits="userSpaceOnUse"
       id="clipPath203">
      <path
         d="M 0,450 H 600 V 0 H 0 Z"
         transform="translate(-420.84384,-168.0117)"
         id="path203" />
    </clipPath>
  </defs>
  <g
     id="layer-MC0"
     transform="translate(-2693.6128,-338.93707)">
    <path
       id="path167"
       d="m 1.6277147,-9.625e-4 h -1.67578121 l 4.48828121,-9.9375 h 1.6054688 l 4.4999995,9.9375 H 8.834746 L 5.2370897,-8.2861188 Z m 15.9726563,0 v -9.9375 h 1.617187 v 9.9375 z m 19.672852,0 v -9.9375 h 1.617187 v 9.9375 z m 11.750976,0 h -1.617187 v -9.9375 h 1.335937 l 5.71875,7.0546875 v -7.0546875 h 1.617188 v 9.9375 H 54.742949 L 49.024199,-7.05565 Z m 17.191406,0 h -1.617187 v -9.9375 h 1.335937 l 5.71875,7.0546875 v -7.0546875 h 1.617188 v 9.9375 H 71.934355 L 66.215605,-7.05565 Z m 20.129883,0.12890625 c -0.767578,0 -1.473633,-0.12597656 -2.121094,-0.375 -0.65039,-0.2578125 -1.21289,-0.61230469 -1.6875,-1.06640625 -0.477539,-0.4599609 -0.849609,-1.0019531 -1.113281,-1.6289063 -0.266601,-0.6240234 -0.398437,-1.3007812 -0.398437,-2.0273437 0,-0.7265625 0.131836,-1.4003906 0.398437,-2.0273438 0.263672,-0.6240234 0.635742,-1.1630859 1.113281,-1.6171875 0.47461,-0.4511718 1.03711,-0.8085937 1.6875,-1.0664062 0.647461,-0.2578125 1.353516,-0.386719 2.121094,-0.386719 0.764649,0 1.470703,0.1289065 2.121094,0.386719 0.647461,0.2578125 1.207031,0.6152344 1.675781,1.0664062 0.47461,0.4541016 0.84668,0.9931641 1.113281,1.6171875 0.263672,0.6181641 0.398438,1.2949219 0.398438,2.0273438 0,0.7441406 -0.134766,1.4238281 -0.398438,2.0390625 -0.266601,0.6181641 -0.638671,1.1572266 -1.113281,1.6171875 -0.46875,0.45410156 -1.02832,0.80859375 -1.675781,1.06640625 -0.650391,0.24902344 -1.356445,0.375 -2.121094,0.375 z m 0,-1.45312505 c 0.530274,0 1.019531,-0.087891 1.464844,-0.2695312 0.451172,-0.1875 0.837891,-0.4394531 1.160156,-0.7617188 0.328125,-0.3193359 0.580078,-0.703125 0.761719,-1.1484375 0.1875,-0.4511718 0.28125,-0.9404296 0.28125,-1.4648437 0,-0.5302734 -0.09375,-1.0136719 -0.28125,-1.453125 C 89.550566,-6.86815 89.298613,-7.2490094 88.970488,-7.571275 88.648223,-7.8994 88.261504,-8.1513531 87.810332,-8.3329938 c -0.445313,-0.1875 -0.93457,-0.28125 -1.464844,-0.28125 -0.533203,0 -1.02539,0.09375 -1.476562,0.28125 -0.454102,0.1816407 -0.84375,0.4335938 -1.171875,0.7617188 -0.328125,0.3222656 -0.585938,0.703125 -0.773438,1.1484375 -0.18164,0.4394531 -0.269531,0.9228516 -0.269531,1.453125 0,0.5244141 0.08789,1.0136719 0.269531,1.4648437 0.1875,0.4453125 0.445313,0.8291016 0.773438,1.1484375 0.328125,0.3222657 0.717773,0.5742188 1.171875,0.7617188 0.451172,0.1816406 0.943359,0.2695312 1.476562,0.2695312 z m 17.244142,1.3242188 h -1.60547 l -4.359375,-9.9375 h 1.769531 l 3.445314,7.921875 3.46875,-7.921875 h 1.62891 z m 11.08594,0 h -1.67578 l 4.48828,-9.9375 h 1.60547 l 4.5,9.9375 h -1.71094 l -3.59766,-8.2851563 z m 17.46679,0 v -8.53125 h -3.35156 v -1.40625 h 8.30859 v 1.40625 h -3.33984 v 8.53125 z m 12.11719,0 v -9.9375 h 1.61719 v 9.9375 z m 14.69238,0.12890625 c -0.76757,0 -1.47363,-0.12597656 -2.12109,-0.375 -0.65039,-0.2578125 -1.21289,-0.61230469 -1.6875,-1.06640625 -0.47754,-0.4599609 -0.84961,-1.0019531 -1.11328,-1.6289063 -0.2666,-0.6240234 -0.39844,-1.3007812 -0.39844,-2.0273437 0,-0.7265625 0.13184,-1.4003906 0.39844,-2.0273438 0.26367,-0.6240234 0.63574,-1.1630859 1.11328,-1.6171875 0.47461,-0.4511718 1.03711,-0.8085937 1.6875,-1.0664062 0.64746,-0.2578125 1.35352,-0.386719 2.12109,-0.386719 0.76465,0 1.47071,0.1289065 2.1211,0.386719 0.64746,0.2578125 1.20703,0.6152344 1.67578,1.0664062 0.47461,0.4541016 0.84668,0.9931641 1.11328,1.6171875 0.26367,0.6181641 0.39844,1.2949219 0.39844,2.0273438 0,0.7441406 -0.13477,1.4238281 -0.39844,2.0390625 -0.2666,0.6181641 -0.63867,1.1572266 -1.11328,1.6171875 -0.46875,0.45410156 -1.02832,0.80859375 -1.67578,1.06640625 -0.65039,0.24902344 -1.35645,0.375 -2.1211,0.375 z m 0,-1.45312505 c 0.53028,0 1.01953,-0.087891 1.46485,-0.2695312 0.45117,-0.1875 0.83789,-0.4394531 1.16015,-0.7617188 0.32813,-0.3193359 0.58008,-0.703125 0.76172,-1.1484375 0.1875,-0.4511718 0.28125,-0.9404296 0.28125,-1.4648437 0,-0.5302734 -0.0937,-1.0136719 -0.28125,-1.453125 -0.18164,-0.4453125 -0.43359,-0.8261719 -0.76172,-1.1484375 -0.32226,-0.328125 -0.70898,-0.5800781 -1.16015,-0.7617188 -0.44532,-0.1875 -0.93457,-0.28125 -1.46485,-0.28125 -0.5332,0 -1.02539,0.09375 -1.47656,0.28125 -0.4541,0.1816407 -0.84375,0.4335938 -1.17187,0.7617188 -0.32813,0.3222656 -0.58594,0.703125 -0.77344,1.1484375 -0.18164,0.4394531 -0.26953,0.9228516 -0.26953,1.453125 0,0.5244141 0.0879,1.0136719 0.26953,1.4648437 0.1875,0.4453125 0.44531,0.8291016 0.77344,1.1484375 0.32812,0.3222657 0.71777,0.5742188 1.17187,0.7617188 0.45117,0.1816406 0.94336,0.2695312 1.47656,0.2695312 z m 14.67481,1.3242188 h -1.61719 v -9.9375 h 1.33594 l 5.71875,7.0546875 v -7.0546875 h 1.61719 v 9.9375 h -1.33594 L 173.62674,-7.05565 Z m 18.54785,0.12890625 c -0.375,0 -0.75586,-0.03222656 -1.13672,-0.09375 -0.375,-0.06152344 -0.73242,-0.14355469 -1.06641,-0.24609375 -0.33691,-0.0996094 -0.65039,-0.22558594 -0.9375,-0.375 -0.28125,-0.15527344 -0.52148,-0.32226563 -0.71484,-0.5039063 l 0.58594,-1.2773437 c 0.38086,0.3222656 0.86719,0.5859375 1.45312,0.796875 0.58594,0.2109375 1.18946,0.3164062 1.81641,0.3164062 0.82031,0 1.41211,-0.1318359 1.78125,-0.3984375 0.36621,-0.2724609 0.55078,-0.6035156 0.55078,-0.9960937 0,-0.3808594 -0.14941,-0.6708984 -0.44531,-0.8671875 -0.29004,-0.2021484 -0.65625,-0.3662109 -1.10156,-0.4921875 -0.44532,-0.1230469 -0.92579,-0.2460938 -1.44141,-0.3632813 -0.50977,-0.1171875 -0.98438,-0.2753906 -1.42969,-0.4804687 -0.44531,-0.2109375 -0.81738,-0.4921875 -1.11328,-0.84375 -0.29004,-0.3574219 -0.43359,-0.84375 -0.43359,-1.453125 0,-0.3984375 0.0762,-0.7734375 0.23437,-1.125 0.15528,-0.3515625 0.39258,-0.6591797 0.71485,-0.9257813 0.32812,-0.2636718 0.73828,-0.4746093 1.23046,-0.6328125 0.49219,-0.1552734 1.06641,-0.2343752 1.72266,-0.2343752 0.60059,0 1.18652,0.079102 1.75781,0.2343752 0.56836,0.1494141 1.06934,0.3632813 1.5,0.6445313 l -0.52734,1.3007812 c -0.44531,-0.2724609 -0.90234,-0.4716796 -1.37109,-0.5976562 -0.46875,-0.1318359 -0.92579,-0.1992188 -1.3711,-0.1992188 -0.80566,0 -1.38867,0.1464844 -1.74609,0.4335938 -0.36035,0.28125 -0.53906,0.6269531 -0.53906,1.03125 0,0.375 0.14355,0.6621094 0.43359,0.8554687 0.2959,0.1962891 0.66797,0.3574219 1.11328,0.4804688 0.44531,0.1259766 0.91992,0.2460937 1.42969,0.3632812 0.51562,0.1113282 0.99609,0.2695313 1.4414,0.4804688 0.44532,0.2050781 0.81153,0.4804687 1.10157,0.8320312 0.2959,0.3515625 0.44531,0.8320313 0.44531,1.4414063 0,0.3925781 -0.082,0.7617187 -0.24609,1.1132812 -0.15821,0.3457032 -0.39844,0.6503907 -0.72657,0.91406255 -0.32226,0.26660156 -0.72656,0.47753906 -1.21875,0.6328125 -0.49218,0.15527344 -1.07519,0.234375 -1.74609,0.234375 z m 0,0"
       style="fill:#000000;fill-opacity:1;fill-rule:nonzero;stroke:none"
       aria-label=" AI INNOVATIONS"
       transform="matrix(1.3333333,0,0,1.3333333,2728.1305,404.78253)" />
    <path
       id="path168"
       d="m 0,0 3.605,-8.29 h 1.704 l -4.5,9.936 H -0.795 L -5.28,-8.29 h 1.675 z"
       style="fill:none;stroke:#000000;stroke-width:0.25;stroke-linecap:butt;stroke-linejoin:miter;stroke-miterlimit:10;stroke-dasharray:none;stroke-opacity:1"
       transform="matrix(1.3333333,0,0,-1.3333333,2735.1139,393.7292)" />
    <path
       id="path169"
       d="m 220.317,156.35 h -1.618 v -9.937 h 1.618 z"
       style="fill:none;stroke:#000000;stroke-width:0.25;stroke-linecap:butt;stroke-linejoin:miter;stroke-miterlimit:10;stroke-dasharray:none;stroke-opacity:1"
       transform="matrix(1.3333333,0,0,-1.3333333,2460,600)" />
    <path
       id="path170"
       d="m 239.99,156.35 h -1.618 v -9.937 h 1.618 z"
       style="fill:none;stroke:#000000;stroke-width:0.25;stroke-linecap:butt;stroke-linejoin:miter;stroke-miterlimit:10;stroke-dasharray:none;stroke-opacity:1"
       transform="matrix(1.3333333,0,0,-1.3333333,2460,600)" />
    <path
       id="path171"
       d="M 0,0 5.72,-7.055 H 7.055 V 2.882 H 5.437 V -4.173 L -0.284,2.882 H -1.618 V -7.055 H 0 Z"
       style="fill:none;stroke:#000000;stroke-width:0.25;stroke-linecap:butt;stroke-linejoin:miter;stroke-miterlimit:10;stroke-dasharray:none;stroke-opacity:1"
       transform="matrix(1.3333333,0,0,-1.3333333,2793.5,395.37627)" />
    <path
       id="path172"
       d="M 0,0 5.72,-7.055 H 7.055 V 2.882 H 5.437 V -4.173 L -0.284,2.882 H -1.618 V -7.055 H 0 Z"
       style="fill:none;stroke:#000000;stroke-width:0.25;stroke-linecap:butt;stroke-linejoin:miter;stroke-miterlimit:10;stroke-dasharray:none;stroke-opacity:1"
       transform="matrix(1.3333333,0,0,-1.3333333,2816.4193,395.37627)" />
    <path
       id="path173"
       d="M 0,0 C 0.648,0.255 1.208,0.61 1.682,1.064 2.155,1.519 2.524,2.056 2.789,2.676 3.054,3.295 3.187,3.975 3.187,4.712 3.187,5.45 3.054,6.129 2.789,6.749 2.524,7.369 2.155,7.906 1.682,8.36 1.208,8.814 0.648,9.169 0,9.425 -0.648,9.681 -1.356,9.808 -2.122,9.808 -2.889,9.808 -3.596,9.681 -4.244,9.425 -4.893,9.169 -5.456,8.814 -5.934,8.36 -6.412,7.906 -6.783,7.366 -7.048,6.742 -7.313,6.117 -7.445,5.44 -7.445,4.712 c 0,-0.729 0.132,-1.405 0.397,-2.029 0.265,-0.625 0.636,-1.164 1.114,-1.619 0.478,-0.454 1.041,-0.809 1.69,-1.064 0.648,-0.256 1.355,-0.384 2.122,-0.384 0.766,0 1.474,0.128 2.122,0.384 z m -3.599,1.341 c -0.454,0.184 -0.844,0.437 -1.171,0.76 -0.326,0.321 -0.582,0.707 -0.766,1.156 -0.185,0.45 -0.277,0.934 -0.277,1.455 0,0.53 0.092,1.017 0.277,1.462 0.184,0.445 0.44,0.828 0.766,1.15 0.327,0.322 0.717,0.574 1.171,0.759 0.455,0.185 0.947,0.277 1.477,0.277 0.53,0 1.019,-0.092 1.469,-0.277 C -0.204,7.898 0.185,7.646 0.511,7.324 0.837,7.002 1.093,6.619 1.277,6.174 1.462,5.729 1.554,5.242 1.554,4.712 1.554,4.191 1.462,3.707 1.277,3.257 1.093,2.808 0.837,2.422 0.511,2.101 0.185,1.778 -0.204,1.525 -0.653,1.341 -1.103,1.156 -1.592,1.064 -2.122,1.064 c -0.53,0 -1.022,0.092 -1.477,0.277 z"
       style="fill:none;stroke:#000000;stroke-width:0.25;stroke-linecap:butt;stroke-linejoin:miter;stroke-miterlimit:10;stroke-dasharray:none;stroke-opacity:1"
       transform="matrix(1.3333333,0,0,-1.3333333,2846.086,404.44147)"
       clip-path="url(#clipPath174)" />
    <path
       id="path175"
       d="M 0,0 H -1.618 L -5.096,-7.921 -8.545,0 h -1.76 l 4.358,-9.937 h 1.604 z"
       style="fill:none;stroke:#000000;stroke-width:0.25;stroke-linecap:butt;stroke-linejoin:miter;stroke-miterlimit:10;stroke-dasharray:none;stroke-opacity:1"
       transform="matrix(1.3333333,0,0,-1.3333333,2872.0423,391.53387)"
       clip-path="url(#clipPath176)" />
    <path
       id="path177"
       d="m 0,0 3.604,-8.29 h 1.705 l -4.5,9.936 H -0.795 L -5.281,-8.29 h 1.676 z"
       style="fill:none;stroke:#000000;stroke-width:0.25;stroke-linecap:butt;stroke-linejoin:miter;stroke-miterlimit:10;stroke-dasharray:none;stroke-opacity:1"
       transform="matrix(1.3333333,0,0,-1.3333333,2885.8405,393.7292)"
       clip-path="url(#clipPath178)" />
    <path
       id="path179"
       d="M 0,0 V 8.531 H 3.351 V 9.937 H -4.968 V 8.531 h 3.35 V 0 Z"
       style="fill:none;stroke:#000000;stroke-width:0.25;stroke-linecap:butt;stroke-linejoin:miter;stroke-miterlimit:10;stroke-dasharray:none;stroke-opacity:1"
       transform="matrix(1.3333333,0,0,-1.3333333,2906.4695,404.78253)"
       clip-path="url(#clipPath180)" />
    <path
       id="path181"
       d="m 346.975,156.35 h -1.618 v -9.937 h 1.618 z"
       style="fill:none;stroke:#000000;stroke-width:0.25;stroke-linecap:butt;stroke-linejoin:miter;stroke-miterlimit:10;stroke-dasharray:none;stroke-opacity:1"
       transform="matrix(1.3333333,0,0,-1.3333333,2460,600)"
       clip-path="url(#clipPath182)" />
    <path
       id="path183"
       d="M 0,0 C 0.648,0.255 1.209,0.61 1.683,1.064 2.155,1.519 2.524,2.056 2.79,2.676 3.055,3.295 3.188,3.975 3.188,4.712 3.188,5.45 3.055,6.129 2.79,6.749 2.524,7.369 2.155,7.906 1.683,8.36 1.209,8.814 0.648,9.169 0,9.425 -0.647,9.681 -1.355,9.808 -2.122,9.808 -2.889,9.808 -3.596,9.681 -4.244,9.425 -4.893,9.169 -5.455,8.814 -5.933,8.36 -6.411,7.906 -6.782,7.366 -7.047,6.742 -7.313,6.117 -7.444,5.44 -7.444,4.712 c 0,-0.729 0.131,-1.405 0.397,-2.029 0.265,-0.625 0.636,-1.164 1.114,-1.619 0.478,-0.454 1.04,-0.809 1.689,-1.064 0.648,-0.256 1.355,-0.384 2.122,-0.384 0.767,0 1.475,0.128 2.122,0.384 z m -3.598,1.341 c -0.454,0.184 -0.844,0.437 -1.171,0.76 -0.327,0.321 -0.582,0.707 -0.766,1.156 -0.185,0.45 -0.278,0.934 -0.278,1.455 0,0.53 0.093,1.017 0.278,1.462 0.184,0.445 0.439,0.828 0.766,1.15 0.327,0.322 0.717,0.574 1.171,0.759 0.454,0.185 0.947,0.277 1.476,0.277 0.53,0 1.019,-0.092 1.47,-0.277 C -0.203,7.898 0.185,7.646 0.512,7.324 0.838,7.002 1.094,6.619 1.278,6.174 1.462,5.729 1.555,5.242 1.555,4.712 1.555,4.191 1.462,3.707 1.278,3.257 1.094,2.808 0.838,2.422 0.512,2.101 0.185,1.778 -0.203,1.525 -0.652,1.341 -1.103,1.156 -1.592,1.064 -2.122,1.064 c -0.529,0 -1.022,0.092 -1.476,0.277 z"
       style="fill:none;stroke:#000000;stroke-width:0.25;stroke-linecap:butt;stroke-linejoin:miter;stroke-miterlimit:10;stroke-dasharray:none;stroke-opacity:1"
       transform="matrix(1.3333333,0,0,-1.3333333,2942.8925,404.44147)"
       clip-path="url(#clipPath184)" />
    <path
       id="path185"
       d="M 0,0 5.72,-7.055 H 7.055 V 2.882 H 5.437 V -4.173 L -0.284,2.882 H -1.618 V -7.055 H 0 Z"
       style="fill:none;stroke:#000000;stroke-width:0.25;stroke-linecap:butt;stroke-linejoin:miter;stroke-miterlimit:10;stroke-dasharray:none;stroke-opacity:1"
       transform="matrix(1.3333333,0,0,-1.3333333,2959.6335,395.37627)"
       clip-path="url(#clipPath186)" />
    <path
       id="path187"
       d="m 0,0 c 0.491,0.156 0.898,0.366 1.221,0.632 0.321,0.264 0.562,0.572 0.723,0.923 0.161,0.349 0.242,0.718 0.242,1.106 0,0.606 -0.147,1.086 -0.44,1.442 C 1.452,4.457 1.083,4.736 0.639,4.939 0.193,5.144 -0.284,5.302 -0.795,5.415 -1.306,5.528 -1.784,5.649 -2.229,5.777 -2.674,5.905 -3.043,6.065 -3.336,6.26 c -0.293,0.194 -0.44,0.48 -0.44,0.858 0,0.407 0.179,0.753 0.54,1.037 0.359,0.283 0.941,0.426 1.746,0.426 0.444,0 0.901,-0.064 1.369,-0.192 C 0.348,8.262 0.804,8.061 1.249,7.786 L 1.774,9.077 C 1.349,9.361 0.849,9.579 0.276,9.73 -0.296,9.882 -0.88,9.957 -1.477,9.957 -2.139,9.957 -2.716,9.88 -3.208,9.724 -3.7,9.567 -4.107,9.356 -4.429,9.092 -4.751,8.826 -4.989,8.519 -5.146,8.169 -5.302,7.818 -5.38,7.445 -5.38,7.048 -5.38,6.433 -5.233,5.947 -4.94,5.593 -4.646,5.238 -4.277,4.956 -3.833,4.748 -3.388,4.54 -2.91,4.379 -2.399,4.266 -1.888,4.152 -1.41,4.031 -0.966,3.903 -0.521,3.775 -0.151,3.612 0.142,3.414 0.435,3.215 0.582,2.927 0.582,2.548 0.582,2.15 0.397,1.817 0.028,1.547 -0.341,1.277 -0.933,1.143 -1.746,1.143 c -0.625,0 -1.231,0.106 -1.817,0.319 -0.587,0.213 -1.074,0.48 -1.462,0.802 L -5.607,0.986 c 0.199,-0.179 0.44,-0.345 0.724,-0.497 0.283,-0.151 0.594,-0.278 0.93,-0.383 0.336,-0.104 0.692,-0.186 1.071,-0.248 0.379,-0.061 0.757,-0.092 1.136,-0.092 0.672,0 1.254,0.078 1.746,0.234 z"
       style="fill:none;stroke:#000000;stroke-width:0.25;stroke-linecap:butt;stroke-linejoin:miter;stroke-miterlimit:10;stroke-dasharray:none;stroke-opacity:1"
       transform="matrix(1.3333333,0,0,-1.3333333,2986.6972,404.64067)"
       clip-path="url(#clipPath188)" />
    <path
       id="path189"
       d="m 26.508813,-1.875e-5 c 6.1875,0 8.542968,-2.67187505 8.542968,-6.57421875 v -3.3632813 c 0,-3.9023442 -2.355468,-6.5625002 -8.542968,-6.5625002 H 10.512719 c -2.3203127,0 -3.3984377,-0.890625 -3.3984377,-2.519531 v -1.652344 c 0,-1.628906 1.078125,-2.519531 3.3984377,-2.519531 h 23.039062 v -4.019531 H 10.512719 c -6.1875002,0 -8.542969,2.671875 -8.542969,6.574218 v 1.582032 c 0,3.902343 2.3554688,6.574218 8.542969,6.574218 h 15.996094 c 2.320312,0 3.410156,0.890625 3.410156,2.507813 v 3.4453125 c 0,1.6171875 -1.089844,2.5078125 -3.410156,2.5078125 H 2.860375 V -1.875e-5 Z m 35.05957,0 V -23.191425 h 13.875 v -4.019531 H 42.173852 v 4.019531 H 56.43557 V -1.875e-5 Z m 28.063476,0 V -27.210956 H 84.499047 V -1.875e-5 Z m 32.159181,0 c 6.45703,0 9.70312,-1.93359375 9.70312,-5.80078125 v -9.035156 h -5.13281 V -5.8008 c 0,1.2070312 -1.51172,1.78125 -4.57031,1.78125 h -12.01172 c -3.05859,0 -4.55859,-0.6210938 -4.55859,-1.8515625 V -21.328144 c 0,-1.242187 1.5,-1.863281 4.55859,-1.863281 h 21.29297 v -4.019531 h -21.29297 c -6.45703,0 -9.70312,1.96875 -9.70312,5.882812 v 15.4570315 c 0,3.9023437 3.24609,5.87109375 9.70312,5.87109375 z m 47.11523,0 V -4.01955 h -22.0664 v -23.191406 h -5.17969 V -1.875e-5 Z m 36.9961,0 V -4.01955 h -22.83985 v -8.34375 h 21.67969 v -4.019531 h -21.67969 v -6.808594 h 22.83985 v -4.019531 H 177.91799 V -1.875e-5 Z m 41.12695,0 -6.41016,-12.21093725 c 4.82813,-0.46875 6.71485,-2.976563 6.71485,-6.492188 v -1.933594 c 0,-3.902343 -2.35547,-6.574218 -8.53125,-6.574218 h -23.1211 V -1.875e-5 h 5.14454 V -12.140644 h 14.34375 l 6.375,12.14062525 z M 242.2012,-18.667988 c 0,1.628907 -1.08985,2.507813 -3.39844,2.507813 H 220.8262 v -7.03125 h 17.97656 c 2.30859,0 3.39844,0.890625 3.39844,2.519531 z m 0,0"
       style="fill:#000000;fill-opacity:1;fill-rule:nonzero;stroke:none"
       aria-label="STIGLER"
       transform="matrix(1.3333333,0,0,1.3333333,2691.7487,375.9844)" />
    <path
       id="path190"
       d="m 0,0 c 6.185,0 8.542,2.667 8.542,6.571 v 3.363 c 0,3.904 -2.357,6.571 -8.542,6.571 h -16.003 c -2.319,0 -3.401,0.89 -3.401,2.513 v 1.662 c 0,1.623 1.082,2.512 3.401,2.512 H 7.034 v 4.02 h -23.037 c -6.185,0 -8.542,-2.667 -8.542,-6.571 v -1.584 c 0,-3.905 2.357,-6.572 8.542,-6.572 H 0 c 2.319,0 3.401,-0.889 3.401,-2.512 V 6.532 C 3.401,4.909 2.319,4.02 0,4.02 H -23.656 V 0 Z"
       style="fill:none;stroke:#000000;stroke-width:1.147;stroke-linecap:butt;stroke-linejoin:miter;stroke-miterlimit:10;stroke-dasharray:none;stroke-opacity:1"
       transform="matrix(1.3333333,0,0,-1.3333333,2727.1041,375.9844)"
       clip-path="url(#clipPath191)" />
    <path
       id="path192"
       d="m 0,0 v 23.192 h 13.877 v 4.02 h -33.281 v -4.02 H -5.141 V 0 Z"
       style="fill:none;stroke:#000000;stroke-width:1.147;stroke-linecap:butt;stroke-linejoin:miter;stroke-miterlimit:10;stroke-dasharray:none;stroke-opacity:1"
       transform="matrix(1.3333333,0,0,-1.3333333,2773.8476,375.9844)"
       clip-path="url(#clipPath193)" />
    <path
       id="path194"
       d="M 0,0 V 27.212 H -5.141 V 0 Z"
       style="fill:none;stroke:#000000;stroke-width:1.147;stroke-linecap:butt;stroke-linejoin:miter;stroke-miterlimit:10;stroke-dasharray:none;stroke-opacity:1"
       transform="matrix(1.3333333,0,0,-1.3333333,2811.2643,375.9844)"
       clip-path="url(#clipPath195)" />
    <path
       id="path196"
       d="m 0,0 c 6.456,0 9.702,1.933 9.702,5.798 v 9.045 H 4.562 V 5.798 C 4.562,4.6 3.054,4.02 0,4.02 h -12.021 c -3.053,0 -4.561,0.619 -4.561,1.855 v 15.462 c 0,1.236 1.508,1.855 4.561,1.855 H 9.277 v 4.02 h -21.298 c -6.455,0 -9.702,-1.972 -9.702,-5.875 V 5.875 C -21.723,1.972 -18.476,0 -12.021,0 Z"
       style="fill:none;stroke:#000000;stroke-width:1.147;stroke-linecap:butt;stroke-linejoin:miter;stroke-miterlimit:10;stroke-dasharray:none;stroke-opacity:1"
       transform="matrix(1.3333333,0,0,-1.3333333,2854.1432,375.9844)"
       clip-path="url(#clipPath197)" />
    <path
       id="path198"
       d="m 0,0 v 4.02 h -22.07 v 23.192 h -5.18 V 0 Z"
       style="fill:none;stroke:#000000;stroke-width:1.147;stroke-linecap:butt;stroke-linejoin:miter;stroke-miterlimit:10;stroke-dasharray:none;stroke-opacity:1"
       transform="matrix(1.3333333,0,0,-1.3333333,2916.9675,375.9844)"
       clip-path="url(#clipPath199)" />
    <path
       id="path200"
       d="m 0,0 v 4.02 h -22.845 v 8.349 H -1.16 v 4.02 h -21.685 v 6.803 H 0 v 4.02 H -27.985 V 0 Z"
       style="fill:none;stroke:#000000;stroke-width:1.147;stroke-linecap:butt;stroke-linejoin:miter;stroke-miterlimit:10;stroke-dasharray:none;stroke-opacity:1"
       transform="matrix(1.3333333,0,0,-1.3333333,2966.2904,375.9844)"
       clip-path="url(#clipPath201)" />
    <path
       id="path202"
       d="m 0,0 -6.416,12.215 c 4.831,0.464 6.726,2.975 6.726,6.493 v 1.933 c 0,3.904 -2.359,6.571 -8.543,6.571 H -31.348 V 0 h 5.141 v 12.137 h 14.341 L -5.488,0 Z m -4.832,18.67 c 0,-1.624 -1.082,-2.513 -3.401,-2.513 h -17.974 v 7.035 h 17.974 c 2.319,0 3.401,-0.889 3.401,-2.512 z"
       style="fill:none;stroke:#000000;stroke-width:1.147;stroke-linecap:butt;stroke-linejoin:miter;stroke-miterlimit:10;stroke-dasharray:none;stroke-opacity:1"
       transform="matrix(1.3333333,0,0,-1.3333333,3021.1251,375.9844)"
       clip-path="url(#clipPath203)" />
  </g>
</svg>
